# xmcd
#
# Track frame offsets: 
#        150
#        23682
#        43002
#        65735
#        71030
#        73792
#        87387
#        92860
#        114752
#        119540
#        124187
#        128979
#        144355
#        151202
#        170287
#
# Disc length: 2470 seconds
#
# Revision: 0
# Processed by: cddbd v1.5PL3 Copyright (c) Steve Scherf et al.
# Submitted via: ExactAudioCopy v0.95a5
#
DISCID=d409a40f
DTITLE=Ferdi Tayfur - Gülhane'den Sevgilerle
DYEAR=1900
DGENRE=
TTITLE0=Allahim sen bilirsin
TTITLE1=Avareyim
TTITLE2=Bir duamiz vardi
TTITLE3=Nisan yagmuru
TTITLE4=Ya benimsin ya topragin
TTITLE5=Sende mi Leyla
TTITLE6=Zamansiz gidisin
TTITLE7=Merak etme sen
TTITLE8=Su genc ömrümün
TTITLE9=Anne
TTITLE10=Ah bir cocuk olsaydim
TTITLE11=Cesme
TTITLE12=Bizim sokaklar
TTITLE13=Ben de özledim
TTITLE14=Gel
EXTD=
EXTT0=
EXTT1=
EXTT2=
EXTT3=
EXTT4=
EXTT5=
EXTT6=
EXTT7=
EXTT8=
EXTT9=
EXTT10=
EXTT11=
EXTT12=
EXTT13=
EXTT14=
PLAYORDER=
